HIERARCHY
ROOT Hips
{
	OFFSET 0.0000 0.0000 0.0000
	CHANNELS 6 Xposition Yposition Zposition Zrotation Xrotation Yrotation
	JOINT Ab
	{
		OFFSET -0.0000 8.0846 -0.0000
		CHANNELS 3 Zrotation Xrotation Yrotation
		JOINT Chest
		{
			OFFSET -0.0000 25.0068 -0.0000
			CHANNELS 3 Zrotation Xrotation Yrotation
			JOINT Neck
			{
				OFFSET -0.0000 25.0068 0.0000
				CHANNELS 3 Zrotation Xrotation Yrotation
				JOINT Head
				{
					OFFSET -0.0000 10.7556 0.0000
					CHANNELS 3 Zrotation Xrotation Yrotation
					End Site
					{
						OFFSET -0.0000 16.6222 0.0000
					}
				}
			}
			JOINT LeftCollar
			{
				OFFSET -0.0000 25.0068 0.0000
				CHANNELS 3 Zrotation Xrotation Yrotation
				JOINT LeftShoulder
				{
					OFFSET 19.5556 -0.0000 0.0000
					CHANNELS 3 Zrotation Xrotation Yrotation
					JOINT LeftElbow
					{
						OFFSET 27.1828 0.0000 0.0000
						CHANNELS 3 Zrotation Xrotation Yrotation
						JOINT LeftWrist
						{
							OFFSET 23.3157 0.0000 0.0000
							CHANNELS 3 Zrotation Xrotation Yrotation
							End Site
							{
								OFFSET 0.0000 -14.6667 0.0000
							}
						}
					}
				}
			}
			JOINT RightCollar
			{
				OFFSET -0.0000 25.0068 0.0000
				CHANNELS 3 Zrotation Xrotation Yrotation
				JOINT RightShoulder
				{
					OFFSET -19.5556 0.0000 0.0000
					CHANNELS 3 Zrotation Xrotation Yrotation
					JOINT RightElbow
					{
						OFFSET -27.1828 0.0000 0.0000
						CHANNELS 3 Zrotation Xrotation Yrotation
						JOINT RightWrist
						{
							OFFSET -23.3157 0.0000 0.0000
							CHANNELS 3 Zrotation Xrotation Yrotation
							End Site
							{
								OFFSET -0.0000 -14.6667 0.0000
							}
						}
					}
				}
			}
		}
	}
	JOINT LeftHip
	{
		OFFSET 11.7333 0.0000 0.0000
		CHANNELS 3 Zrotation Xrotation Yrotation
		JOINT LeftKnee
		{
			OFFSET -0.0000 -40.8688 0.0000
			CHANNELS 3 Zrotation Xrotation Yrotation
			JOINT LeftAnkle
			{
				OFFSET -0.0000 -44.4337 0.0000
				CHANNELS 3 Zrotation Xrotation Yrotation
				End Site
				{
					OFFSET -0.0000 -4.8889 16.6222
				}
			}
		}
	}
	JOINT RightHip
	{
		OFFSET -11.7333 0.0000 0.0000
		CHANNELS 3 Zrotation Xrotation Yrotation
		JOINT RightKnee
		{
			OFFSET -0.0000 -40.8688 0.0000
			CHANNELS 3 Zrotation Xrotation Yrotation
			JOINT RightAnkle
			{
				OFFSET -0.0000 -44.4337 0.0000
				CHANNELS 3 Zrotation Xrotation Yrotation
				End Site
				{
					OFFSET -0.0000 -4.8889 16.6222
				}
			}
		}
	}
}
MOTION
Frames: 19
Frame Time: 0.010000
-0.8672 89.7368 131.2827 359.3181 355.7080 185.4294 0.5124 7.6171 357.6253 355.1539 4.6785 357.8589 1.3663 337.5739 359.4977 2.2661 1.1992 359.1994 340.0599 357.9090 11.8451 303.1889 30.5056 0.1875 19.0521 353.3596 321.3510 86.3827 353.0630 350.5031 19.7813 358.7328 353.0512 50.3214 52.0259 20.3604 329.0420 350.2654 34.4649 266.2631 350.2746 4.2129 358.0899 350.3077 355.9808 358.8860 12.7204 356.1250 346.3260 351.5955 19.3449 359.8826 340.7829 3.3042 359.7001 26.3568 6.6619 353.9063 345.6870 336.7184 
-0.8666 89.5514 130.3282 359.6375 356.1380 185.1163 0.6326 7.4652 357.8078 355.1515 4.7963 358.0534 1.3818 338.1008 359.4408 2.3264 1.3911 359.1421 340.2628 357.9315 11.9115 302.3302 29.2600 1.5295 18.5841 353.6202 321.9957 86.8575 352.8558 349.7322 19.7100 358.8130 353.5176 47.5927 51.8233 23.0552 329.0492 350.1430 34.9117 267.2955 350.3009 4.5614 358.4586 350.3012 356.2668 358.8684 13.1371 356.4924 341.5762 347.3399 29.8236 0.2834 341.4774 3.0248 359.6952 26.9107 7.5090 353.5763 345.0546 336.2901 
-0.8823 89.3215 129.4245 359.9257 356.4033 184.6385 0.6484 7.2776 358.0740 355.2060 4.6913 358.3141 1.4997 338.6725 359.4144 2.3852 1.6456 359.0967 340.4871 357.9502 11.9131 301.4092 27.5665 2.9757 18.2211 353.7813 322.1061 86.6158 353.3722 348.6911 19.6271 358.8992 353.9891 45.1818 51.4678 25.4479 329.1649 350.0821 35.2575 268.1208 350.6584 4.4444 358.7902 350.2438 356.7192 358.9340 13.6509 356.8066 343.1873 347.0807 31.5873 0.6790 341.7737 2.8306 359.6513 27.8061 8.2684 353.3682 344.2281 336.0715 
-0.9148 89.0682 128.4857 0.3411 356.7865 184.0790 0.8647 7.1948 358.3157 355.1841 4.5408 358.5616 1.4491 339.0836 359.2724 2.6514 2.1777 358.9447 340.7215 357.9993 11.8015 300.5698 25.1898 4.4279 17.3816 354.1969 322.2805 86.5923 353.5587 346.9701 19.5559 358.9724 354.3819 43.0238 50.9178 27.5728 329.4971 350.1628 35.4378 268.6150 349.5287 4.9325 359.2948 350.5687 357.4036 358.8622 14.4241 356.8800 345.6699 347.8354 33.2255 1.2316 342.0774 2.6768 359.5446 28.9384 9.3642 353.0089 343.4010 335.5841 
-0.9604 88.8016 127.5716 0.7256 357.1289 183.5686 1.0547 7.1465 358.4718 355.1745 4.3483 358.7242 1.7384 339.5200 359.2387 2.6520 2.5081 358.8578 341.0009 358.0570 11.5501 299.7604 22.5028 5.8928 16.3124 354.6400 321.9345 87.0311 354.4758 344.8086 19.4222 359.0480 354.6738 41.1072 50.5073 29.5601 329.6362 350.1320 35.6051 269.5579 349.1092 5.4363 359.7300 350.8159 357.6982 358.7104 15.9491 356.9533 346.6437 347.1979 33.6881 1.7396 342.1666 2.4140 359.3351 30.3999 10.4976 353.0425 342.3569 335.1979 
-1.0245 88.5373 126.6081 1.1256 357.5202 182.8942 1.2900 7.1096 358.6530 355.0852 4.1581 358.9138 2.1700 339.8648 359.3247 2.6852 2.9514 358.8689 341.1853 358.0661 11.5329 299.1449 20.6141 7.2578 15.7573 354.7772 322.0211 87.1592 354.7073 343.5453 19.3140 359.1139 355.0545 39.5967 50.0370 31.1181 329.8574 350.1598 35.8106 270.7502 348.3994 5.8861 0.2250 351.2836 357.9803 358.4869 17.6222 356.2191 353.4493 349.6587 23.1401 2.3410 342.1374 2.2452 358.9944 32.1950 11.5353 352.8532 341.3382 334.8563 
-1.1060 88.2575 125.6726 1.3822 357.9725 182.3603 1.4136 7.2374 358.7249 354.9950 3.9474 358.9884 2.4836 340.1227 359.3304 2.9118 3.2763 358.8078 341.3774 358.1456 11.4601 298.6487 18.9046 8.3750 15.1916 354.9708 322.2810 87.1778 354.9812 342.5751 19.1675 359.1789 355.2648 38.6228 49.5984 32.2463 330.0905 350.1503 36.2013 270.9739 348.2715 6.3405 0.5909 352.0042 358.1939 358.2020 18.7245 355.8668 354.5035 348.6098 23.4925 2.7259 342.0129 2.0279 358.7276 34.2514 11.9855 352.7490 340.3396 334.9171 
-1.1617 88.0486 124.7541 1.4940 358.2613 181.2444 1.2505 7.2626 359.0567 354.8932 3.7132 359.3057 2.9738 340.1461 359.5813 3.1915 3.7524 358.9612 341.5599 358.1377 11.6433 298.2963 17.0352 9.3936 14.6283 355.1510 322.0959 87.3729 355.6172 341.8211 19.2024 359.1760 355.2684 36.2371 49.7258 34.8339 330.4321 350.2556 36.1388 271.5309 348.5858 7.1093 0.9135 353.0599 359.1874 358.0565 18.7583 356.1717 353.9960 347.5184 23.1487 3.1784 341.4459 2.5956 358.5644 36.8983 11.8283 353.6229 339.4099 335.6550 
-1.2530 87.8426 123.8505 1.3837 358.5698 180.4505 0.9536 7.3000 359.1983 354.8397 3.6806 359.4282 3.5264 340.1232 359.8468 3.3450 3.8494 359.1294 341.8295 358.1526 11.5617 297.7773 16.1287 10.2360 14.5916 355.0792 322.4576 87.0547 355.5442 341.7116 18.9756 359.1951 355.0870 35.1911 49.5855 36.1644 330.6916 350.2506 36.6298 271.1931 348.4474 8.0432 0.9913 354.2704 359.8690 357.7659 18.3940 357.1528 353.8638 347.0344 22.4220 3.2017 340.9047 2.8401 358.4586 39.2947 12.7007 355.1596 338.9425 335.5304 
-1.3851 87.6847 122.9996 1.1169 358.5571 179.8226 0.6158 7.1147 359.2146 354.6529 3.4473 359.4178 3.7826 340.1227 359.9265 3.6054 4.1051 359.1361 341.8667 358.1252 11.5217 297.5670 15.4477 11.0449 14.7357 355.0125 322.6585 86.3750 355.9755 341.8491 18.9936 359.1655 354.9750 34.1296 49.8532 37.2258 330.6190 350.0528 37.0902 272.1057 348.6479 8.7286 0.8630 355.0432 0.3151 357.4336 18.2273 357.1697 354.0671 346.4583 22.4419 2.9437 339.8184 2.9926 358.8607 42.0742 11.6798 353.0029 338.9929 335.4415 
-1.5294 87.5517 122.1138 0.8304 358.6411 179.3457 0.2312 7.0749 359.3064 354.5336 3.1764 359.4753 4.1563 339.9758 359.9978 3.6101 4.5059 359.1193 341.7947 358.1714 11.0998 297.9637 12.9466 12.0007 13.2590 355.7458 322.1400 87.1001 355.9646 340.2701 18.9567 359.1244 354.7405 33.4396 50.3790 37.9148 330.6342 349.9235 37.5572 271.4742 348.8197 8.8065 0.6170 355.9092 0.3681 357.1655 17.9307 357.3854 354.8293 345.4629 22.6260 2.5436 338.9163 3.0554 359.2803 44.8338 11.1763 355.6295 338.4402 336.7375 
-1.6623 87.4512 121.2524 0.5698 358.5887 178.9510 0.2537 6.8258 359.2826 353.7239 3.1368 359.4667 4.8573 339.6674 0.0828 3.4929 4.9302 359.0497 341.9545 358.2428 10.9789 298.0581 13.0527 12.2440 13.4873 355.4608 322.4301 86.4438 356.3324 340.3558 19.2369 359.0587 354.6772 33.9832 50.4062 37.3734 330.9851 349.9029 38.4734 270.9400 348.6965 9.1039 0.3295 356.7121 0.7152 357.0822 17.5416 357.3770 356.6477 345.3694 23.1177 2.0959 337.8439 3.0377 0.0329 47.3775 9.4542 355.8768 339.2014 337.8348 
-1.7871 87.3709 120.4162 0.4332 358.5269 178.8969 0.1966 6.5938 359.1208 353.5812 3.0613 359.3059 4.8890 339.6098 0.0311 3.5508 5.1704 358.9879 341.7533 358.2537 10.6684 298.1298 13.4518 12.4207 13.5199 355.3928 322.7534 87.3380 356.6102 340.3969 19.1930 359.0909 354.5655 34.9290 50.6769 36.2838 331.1637 349.7282 39.3788 270.0083 348.5151 9.3391 0.0854 357.5134 0.9218 357.1864 16.9969 357.1750 358.7643 345.5284 23.6435 1.6268 336.8857 2.6455 0.7355 49.4843 8.2060 356.7402 339.9027 337.9965 
-1.8998 87.3103 119.5795 0.4130 358.3751 179.0219 0.3215 6.1372 359.0615 353.3485 3.1841 359.2662 5.0146 339.7128 359.9561 3.4272 5.1648 358.8967 341.6589 358.3061 10.0755 298.2331 13.4275 12.4613 13.4532 355.4925 323.1976 87.7162 356.5474 340.1249 19.2928 359.0324 354.1906 35.5380 50.8492 35.6164 331.3154 349.5753 39.9820 270.3609 348.1496 9.1668 359.9019 358.2132 1.8921 357.6443 16.4420 356.1067 358.7502 345.3074 23.5861 1.1361 335.9421 2.1561 1.7567 50.9650 6.7513 358.4182 339.2972 338.0170 
-2.0161 87.2761 118.7536 0.5498 358.1248 179.3534 0.7072 5.7775 358.6020 353.3328 3.1037 358.8174 4.4467 339.7271 359.8096 3.7194 5.3662 358.8452 341.3955 358.3591 9.4807 298.3395 13.1362 12.5013 13.1794 355.6409 323.3532 87.9482 356.7083 339.6626 19.3088 358.9744 353.6886 36.2494 51.0479 34.7703 331.7261 349.6213 40.4266 270.5041 347.6552 9.1662 359.8565 358.9765 2.0185 357.9114 15.4872 355.7484 358.6492 345.2702 23.4712 0.6771 335.1581 1.7239 2.9233 51.5474 5.1560 358.8085 339.0039 338.4728 
-2.1039 87.2673 117.9226 0.7711 357.8947 179.6777 1.0090 5.4676 358.3217 353.4871 2.9208 358.5354 4.2857 339.8674 359.9048 3.5996 5.5798 358.9838 341.1123 358.3977 9.1476 298.5475 12.3696 12.1966 12.7338 355.8714 323.6417 87.9760 356.4872 338.7675 19.3220 358.9285 353.5055 37.6286 51.2164 33.1750 332.2283 349.7300 40.7758 270.8142 347.2001 9.1179 359.9217 359.8701 1.9988 358.1069 14.3205 355.7304 358.4635 345.3348 23.2067 0.3557 334.4675 1.1008 3.7203 51.3996 4.6130 356.2921 339.2350 337.8594 
-2.1889 87.2707 117.0859 1.0296 357.6908 180.0690 1.4247 5.2022 358.0189 353.5486 2.7722 358.2391 4.1209 340.0764 359.8951 3.4492 5.6801 359.0048 340.8994 358.4270 9.0387 298.3723 13.8066 11.3508 13.5438 355.4893 324.5380 87.8809 356.4337 339.4142 19.3832 358.8583 353.1223 39.0989 51.4800 31.4202 332.6578 349.8468 40.7818 271.1394 346.2592 9.5260 359.9547 0.6952 1.6246 358.4071 13.3087 356.0299 358.2088 345.2896 22.9176 0.0756 333.8587 0.6299 4.7263 50.5151 2.9722 357.0859 338.6565 338.1639 
-2.2639 87.2767 116.2836 1.3418 357.4134 180.5415 1.8462 5.0048 357.7116 353.7269 2.4365 357.9261 3.9743 340.3417 359.9057 3.3201 5.8112 359.0528 340.7185 358.4739 8.5659 298.4176 13.3172 10.8259 13.2344 355.7433 324.5774 88.4291 356.4388 339.0624 19.4357 358.7920 352.7356 41.0485 51.3822 29.0791 333.2710 350.0733 40.9677 271.8498 346.1385 10.1086 0.0508 1.5692 1.4338 358.7281 12.0584 356.1801 353.5878 344.5763 21.5374 359.8823 333.1322 0.2208 5.3075 49.5318 2.6153 356.2461 338.3964 337.4462 
-2.3256 87.2818 115.4713 1.6074 357.1378 180.9606 2.1645 4.8062 357.4462 353.9254 2.1810 357.6516 4.2758 340.2749 359.9541 2.4834 6.3858 359.0658 340.6524 358.5390 8.2230 298.3286 12.9436 10.0295 13.0339 355.8433 324.6282 88.7541 356.1760 338.6306 19.5185 358.7284 352.3386 42.9468 51.2517 26.7419 333.8714 350.2646 41.2194 272.9024 346.9283 10.8106 0.1234 2.4744 1.1601 359.0407 10.7353 356.1454 0.3136 346.0132 23.3691 359.7438 332.3594 359.9912 5.7288 48.2349 1.4908 357.5672 337.6743 338.2384 
